<svg width="40" height="40" fill="none" xmlns="http://www.w3.org/2000/svg"><path d="M0 19h8.774c2.002 0 4.076-.122 5.78-1.172a10.018 10.018 0 0 0 3.274-3.274C18.878 12.85 19 10.776 19 8.774V0H6a6 6 0 0 0-6 6v13Z" fill="#6D1600"/><path d="M40 20c0 11.046-8.954 20-20 20C9.29 40 .547 31.581.024 21h8.75c2.002 0 4.076.122 5.78 1.172a10 10 0 0 1 4.627 6.904l.062.383a.798.798 0 0 0 1.514 0l.062-.383a9.998 9.998 0 0 1 8.257-8.257l.383-.062a.802.802 0 0 0 .185-1.423.813.813 0 0 0-.185-.091l-.383-.062a9.994 9.994 0 0 1-6.904-4.627C21.122 12.85 21 10.776 21 8.774V0h13a6 6 0 0 1 6 6v14Z" fill="#6D1600"/></svg>